<?xml version="1.0" encoding="utf-8"?>
<!-- Generator: Adobe Illustrator 24.1.3, SVG Export Plug-In . SVG Version: 6.00 Build 0)  -->
<svg version="1.1" id="Layer_1" xmlns="http://www.w3.org/2000/svg" xmlns:xlink="http://www.w3.org/1999/xlink" x="0px" y="0px"
	 viewBox="0 0 14.17 14.17" style="enable-background:new 0 0 14.17 14.17;" xml:space="preserve">
<style type="text/css">
	.st0{fill:#2E3192;}
</style>
<g>
	<polygon class="st0" points="7.53,12.04 6.57,12.04 7.05,12.86 	"/>
	<polygon class="st0" points="0.43,1.31 4.9,9.12 5.9,7.4 4.89,5.67 6.82,5.67 6.25,4.67 7.84,4.67 7.27,5.67 9.2,5.67 8.19,7.4 
		9.2,9.15 13.74,1.36 	"/>
	<polygon class="st0" points="6.11,7.78 3.87,11.66 10.22,11.66 7.98,7.78 7.05,9.39 	"/>
	<polygon class="st0" points="7.04,6.04 5.55,6.04 7.05,8.64 8.54,6.04 7.05,6.04 7.05,6.05 	"/>
	<polygon class="st0" points="7.45,4.89 6.64,4.89 7.05,5.6 	"/>
</g>
</svg>
